# xmcd
#
# Track frame offsets: 
#        182
#        24620
#        41795
#        58070
#        82112
#        90907
#        108927
#        132832
#        152835
#        169025
#        185212
#        190332
#        216730
#        246205
#
# Disc length: 3510 seconds
#
# Revision: 1
# Processed by: cddbd v1.5.2PL0 Copyright (c) Steve Scherf et al.
# Submitted via: ExactAudioCopy v1.0b1
#
DISCID=ca0db40e
DTITLE=Marvin Gaye - Live
DYEAR=1983
DGENRE=Soul
TTITLE0=Third World Girl
TTITLE1=I Heard It Through The Grapevine
TTITLE2=Come Get To This
TTITLE3=Let's Get It On
TTITLE4=God Is My Friend
TTITLE5=What's Going On
TTITLE6=Inner City Blues (Make Me Wanna Holler)
TTITLE7=Joy
TTITLE8=Ain't Nothing Like The Real Thing
TTITLE9=Heaven Must Have Send You
TTITLE10=If This World Where Mine
TTITLE11=Rockin' After Midnight
TTITLE12=Distant Lover
TTITLE13=Sexual Healing
EXTD=
EXTT0=
EXTT1=
EXTT2=
EXTT3=
EXTT4=
EXTT5=
EXTT6=
EXTT7=
EXTT8=
EXTT9=
EXTT10=
EXTT11=
EXTT12=
EXTT13=
PLAYORDER=
